REM DIRINDEX 1\2,1\3,1\4
REM DIRNAME folder01,folder02,folder03,folder04
TITLE ""
FILE "Disc2Track03.mp3" MP3
  TRACK 01 AUDIO
    TITLE "0:"
    INDEX 01 00:00:00
  TRACK 02 AUDIO
    TITLE "4:cjc085_1186"
    INDEX 01 00:05:16
  TRACK 03 AUDIO
    TITLE "0:"
    INDEX 01 00:07:52
  TRACK 04 AUDIO
    TITLE "4:cjc085_1187"
    INDEX 01 00:08:32
  TRACK 05 AUDIO
    TITLE "2:cjc085_1188"
    INDEX 01 00:11:66
  TRACK 06 AUDIO
    TITLE "0:"
    INDEX 01 00:18:19
  TRACK 07 AUDIO
    TITLE "3:cjc085_1189"
    INDEX 01 00:18:52
  TRACK 08 AUDIO
    TITLE "0:"
    INDEX 01 00:23:40
  TRACK 09 AUDIO
    TITLE "4:cjc085_1190"
    INDEX 01 00:25:21
  TRACK 10 AUDIO
    TITLE "2:cjc085_1191"
    INDEX 01 00:28:25
  TRACK 11 AUDIO
    TITLE "0:"
    INDEX 01 00:32:00
  TRACK 12 AUDIO
    TITLE "3:cjc085_1192"
    INDEX 01 00:32:58
  TRACK 13 AUDIO
    TITLE "0:"
    INDEX 01 00:36:13
  TRACK 14 AUDIO
    TITLE "4:cjc085_1193"
    INDEX 01 00:37:08
  TRACK 15 AUDIO
    TITLE "2:cjc085_1194"
    INDEX 01 00:39:74
  TRACK 16 AUDIO
    TITLE "0:"
    INDEX 01 00:44:44
  TRACK 17 AUDIO
    TITLE "3:cjc085_1195"
    INDEX 01 00:45:14
  TRACK 18 AUDIO
    TITLE "0:"
    INDEX 01 00:49:04
  TRACK 19 AUDIO
    TITLE "4:cjc085_1196"
    INDEX 01 00:50:31
  TRACK 20 AUDIO
    TITLE "2:cjc085_1197"
    INDEX 01 00:53:09
  TRACK 21 AUDIO
    TITLE "0:"
    INDEX 01 00:57:29
  TRACK 22 AUDIO
    TITLE "3:cjc085_1198"
    INDEX 01 00:58:13
  TRACK 23 AUDIO
    TITLE "0:"
    INDEX 01 01:01:54
  TRACK 24 AUDIO
    TITLE "4:cjc085_1199"
    INDEX 01 01:02:42
  TRACK 25 AUDIO
    TITLE "2:cjc085_1200"
    INDEX 01 01:05:21
  TRACK 26 AUDIO
    TITLE "0:"
    INDEX 01 01:11:05
  TRACK 27 AUDIO
    TITLE "3:cjc085_1201"
    INDEX 01 01:11:37
  TRACK 28 AUDIO
    TITLE "0:"
    INDEX 01 01:14:49
  TRACK 29 AUDIO
    TITLE "4:cjc085_1202"
    INDEX 01 01:17:67
  TRACK 30 AUDIO
    TITLE "2:cjc085_1203"
    INDEX 01 01:21:06
  TRACK 31 AUDIO
    TITLE "0:"
    INDEX 01 01:29:15
  TRACK 32 AUDIO
    TITLE "3:cjc085_1204"
    INDEX 01 01:29:60
  TRACK 33 AUDIO
    TITLE "0:"
    INDEX 01 01:35:18
  TRACK 34 AUDIO
    TITLE "4:cjc085_1205"
    INDEX 01 01:35:71
  TRACK 35 AUDIO
    TITLE "2:cjc085_1206"
    INDEX 01 01:38:36
  TRACK 36 AUDIO
    TITLE "0:"
    INDEX 01 01:43:29
  TRACK 37 AUDIO
    TITLE "3:cjc085_1207"
    INDEX 01 01:43:51
  TRACK 38 AUDIO
    TITLE "0:"
    INDEX 01 01:47:68
  TRACK 39 AUDIO
    TITLE "4:cjc085_1208"
    INDEX 01 01:49:24
  TRACK 40 AUDIO
    TITLE "2:cjc085_1209"
    INDEX 01 01:52:08
  TRACK 41 AUDIO
    TITLE "0:"
    INDEX 01 01:55:44
  TRACK 42 AUDIO
    TITLE "3:cjc085_1210"
    INDEX 01 01:56:18
  TRACK 43 AUDIO
    TITLE "0:"
    INDEX 01 01:59:55
  TRACK 44 AUDIO
    TITLE "4:cjc085_1211"
    INDEX 01 02:00:47
  TRACK 45 AUDIO
    TITLE "2:cjc085_1212"
    INDEX 01 02:03:36
  TRACK 46 AUDIO
    TITLE "0:"
    INDEX 01 02:08:05
  TRACK 47 AUDIO
    TITLE "3:cjc085_1213"
    INDEX 01 02:08:66
  TRACK 48 AUDIO
    TITLE "0:"
    INDEX 01 02:12:66
  TRACK 49 AUDIO
    TITLE "4:cjc085_1214"
    INDEX 01 02:13:32
  TRACK 50 AUDIO
    TITLE "2:cjc085_1215"
    INDEX 01 02:16:05
  TRACK 51 AUDIO
    TITLE "0:"
    INDEX 01 02:20:24
  TRACK 52 AUDIO
    TITLE "3:cjc085_1216"
    INDEX 01 02:20:58
  TRACK 53 AUDIO
    TITLE "0:"
    INDEX 01 02:24:47
  TRACK 54 AUDIO
    TITLE "4:cjc085_1217"
    INDEX 01 02:25:20
  TRACK 55 AUDIO
    TITLE "2:cjc085_1218"
    INDEX 01 02:27:73
  TRACK 56 AUDIO
    TITLE "0:"
    INDEX 01 02:32:69
  TRACK 57 AUDIO
    TITLE "3:cjc085_1219"
    INDEX 01 02:33:19
  TRACK 58 AUDIO
    TITLE "0:"
    INDEX 01 02:36:59
  TRACK 59 AUDIO
    TITLE "4:cjc085_1220"
    INDEX 01 02:37:40
  TRACK 60 AUDIO
    TITLE "2:cjc085_1221"
    INDEX 01 02:40:05
  TRACK 61 AUDIO
    TITLE "0:"
    INDEX 01 02:43:51
  TRACK 62 AUDIO
    TITLE "3:cjc085_1222"
    INDEX 01 02:44:36
  TRACK 63 AUDIO
    TITLE "0:"
    INDEX 01 02:47:37
  TRACK 64 AUDIO
    TITLE "4:cjc085_1223"
    INDEX 01 02:48:26
  TRACK 65 AUDIO
    TITLE "2:cjc085_1224"
    INDEX 01 02:51:07
  TRACK 66 AUDIO
    TITLE "0:"
    INDEX 01 02:53:51
  TRACK 67 AUDIO
    TITLE "3:cjc085_1225"
    INDEX 01 02:53:65
  TRACK 68 AUDIO
    TITLE "0:"
    INDEX 01 02:57:00
  TRACK 69 AUDIO
    TITLE "4:cjc085_1226"
    INDEX 01 02:57:61
  TRACK 70 AUDIO
    TITLE "2:cjc085_1227"
    INDEX 01 03:00:51
  TRACK 71 AUDIO
    TITLE "0:"
    INDEX 01 03:04:72
  TRACK 72 AUDIO
    TITLE "3:cjc085_1228"
    INDEX 01 03:05:07
  TRACK 73 AUDIO
    TITLE "0:"
    INDEX 01 03:09:21
  TRACK 74 AUDIO
    TITLE "4:cjc085_1229"
    INDEX 01 03:10:32
  TRACK 75 AUDIO
    TITLE "2:cjc085_1230"
    INDEX 01 03:12:31
  TRACK 76 AUDIO
    TITLE "0:"
    INDEX 01 03:18:18
  TRACK 77 AUDIO
    TITLE "3:cjc085_1231"
    INDEX 01 03:18:39
  TRACK 78 AUDIO
    TITLE "0:"
    INDEX 01 03:21:73
  TRACK 79 AUDIO
    TITLE "4:cjc085_1232"
    INDEX 01 03:23:27
  TRACK 80 AUDIO
    TITLE "2:cjc085_1233"
    INDEX 01 03:25:61
  TRACK 81 AUDIO
    TITLE "0:"
    INDEX 01 03:30:62
  TRACK 82 AUDIO
    TITLE "3:cjc085_1234"
    INDEX 01 03:31:52
  TRACK 83 AUDIO
    TITLE "0:"
    INDEX 01 03:35:46
  TRACK 84 AUDIO
    TITLE "4:cjc085_1235"
    INDEX 01 03:36:22
  TRACK 85 AUDIO
    TITLE "2:cjc085_1236"
    INDEX 01 03:38:15
  TRACK 86 AUDIO
    TITLE "0:"
    INDEX 01 03:42:55
  TRACK 87 AUDIO
    TITLE "3:cjc085_1237"
    INDEX 01 03:43:31
  TRACK 88 AUDIO
    TITLE "0:"
    INDEX 01 03:47:70
  TRACK 89 AUDIO
    TITLE "4:cjc085_1238"
    INDEX 01 03:48:46
  TRACK 90 AUDIO
    TITLE "2:cjc085_1239"
    INDEX 01 03:50:51
  TRACK 91 AUDIO
    TITLE "0:"
    INDEX 01 03:54:41
  TRACK 92 AUDIO
    TITLE "3:cjc085_1240"
    INDEX 01 03:55:01
  TRACK 93 AUDIO
    TITLE "0:"
    INDEX 01 03:58:35
  TRACK 94 AUDIO
    TITLE "4:cjc085_1241"
    INDEX 01 03:59:42
  TRACK 95 AUDIO
    TITLE "2:cjc085_1242"
    INDEX 01 04:01:59
  TRACK 96 AUDIO
    TITLE "0:"
    INDEX 01 04:07:08
  TRACK 97 AUDIO
    TITLE "3:cjc085_1243"
    INDEX 01 04:07:26
  TRACK 98 AUDIO
    TITLE "0:"
    INDEX 01 04:10:56
